<mxfile host="65bd71144e">
    <diagram id="iX1Cwdpi0uXskpeYJJWa" name="Page-1">
        <mxGraphModel dx="1953" dy="1422" grid="1" gridSize="10" guides="1" tooltips="1" connect="1" arrows="1" fold="1" page="1" pageScale="1" pageWidth="1169" pageHeight="827" math="0" shadow="0">
            <root>
                <mxCell id="0"/>
                <mxCell id="1" parent="0"/>
                <mxCell id="21" value="" style="shape=doubleArrow;direction=south;whiteSpace=wrap;html=1;fontSize=20;fontColor=#F1F1F1;strokeColor=none;fillColor=#FF6666;arrowWidth=0.31199999999999817;arrowSize=0.10888888888888915;" vertex="1" parent="1">
                    <mxGeometry x="855" y="458" width="50" height="150" as="geometry"/>
                </mxCell>
                <mxCell id="20" value="" style="shape=doubleArrow;direction=south;whiteSpace=wrap;html=1;fontSize=20;fontColor=#F1F1F1;strokeColor=none;fillColor=#FF6666;arrowWidth=0.31199999999999817;arrowSize=0.10888888888888915;" vertex="1" parent="1">
                    <mxGeometry x="335" y="458" width="50" height="150" as="geometry"/>
                </mxCell>
                <mxCell id="19" value="" style="shape=doubleArrow;direction=south;whiteSpace=wrap;html=1;fontSize=20;fontColor=#F1F1F1;strokeColor=none;fillColor=#FF6666;arrowWidth=0.31199999999999817;arrowSize=0.10888888888888915;" vertex="1" parent="1">
                    <mxGeometry x="595" y="458" width="50" height="150" as="geometry"/>
                </mxCell>
                <mxCell id="2" value="&lt;font face=&quot;Roboto&quot; data-font-src=&quot;https://fonts.googleapis.com/css?family=Roboto&quot; style=&quot;font-size: 20px&quot;&gt;Address&amp;nbsp;Bus&lt;/font&gt;" style="rounded=0;whiteSpace=wrap;html=1;strokeColor=none;fillColor=#fdd900;fontColor=#1F1F1F;" vertex="1" parent="1">
                    <mxGeometry x="245" y="538" width="680" height="40" as="geometry"/>
                </mxCell>
                <mxCell id="3" value="&lt;font face=&quot;Roboto&quot; data-font-src=&quot;https://fonts.googleapis.com/css?family=Roboto&quot; style=&quot;font-size: 20px&quot;&gt;Control Bus&lt;/font&gt;" style="rounded=0;whiteSpace=wrap;html=1;strokeColor=none;fillColor=#FF6666;fontColor=#1F1F1F;" vertex="1" parent="1">
                    <mxGeometry x="245" y="608" width="680" height="40" as="geometry"/>
                </mxCell>
                <mxCell id="4" value="&lt;font face=&quot;Roboto&quot; data-font-src=&quot;https://fonts.googleapis.com/css?family=Roboto&quot; style=&quot;font-size: 20px&quot;&gt;Data Bus&lt;/font&gt;" style="rounded=0;whiteSpace=wrap;html=1;strokeColor=none;fillColor=#00FFFF;fontColor=#1F1F1F;" vertex="1" parent="1">
                    <mxGeometry x="245" y="178" width="680" height="40" as="geometry"/>
                </mxCell>
                <mxCell id="9" value="" style="shape=doubleArrow;direction=south;whiteSpace=wrap;html=1;fontSize=20;fontColor=#F1F1F1;strokeColor=none;fillColor=#00FFFF;" vertex="1" parent="1">
                    <mxGeometry x="300" y="218" width="50" height="80" as="geometry"/>
                </mxCell>
                <mxCell id="10" value="" style="shape=doubleArrow;direction=south;whiteSpace=wrap;html=1;fontSize=20;fontColor=#F1F1F1;strokeColor=none;fillColor=#00FFFF;" vertex="1" parent="1">
                    <mxGeometry x="560" y="218" width="50" height="80" as="geometry"/>
                </mxCell>
                <mxCell id="11" value="" style="shape=doubleArrow;direction=south;whiteSpace=wrap;html=1;fontSize=20;fontColor=#F1F1F1;strokeColor=none;fillColor=#00FFFF;" vertex="1" parent="1">
                    <mxGeometry x="820" y="218" width="50" height="80" as="geometry"/>
                </mxCell>
                <mxCell id="14" value="" style="shape=singleArrow;direction=north;whiteSpace=wrap;html=1;fontSize=20;fontColor=#F1F1F1;strokeColor=none;fillColor=#FDD900;" vertex="1" parent="1">
                    <mxGeometry x="785" y="458" width="50" height="80" as="geometry"/>
                </mxCell>
                <mxCell id="16" value="" style="shape=singleArrow;direction=north;whiteSpace=wrap;html=1;fontSize=20;fontColor=#F1F1F1;strokeColor=none;fillColor=#FDD900;" vertex="1" parent="1">
                    <mxGeometry x="265" y="458" width="50" height="80" as="geometry"/>
                </mxCell>
                <mxCell id="17" value="" style="shape=singleArrow;direction=south;whiteSpace=wrap;html=1;fontSize=20;fontColor=#F1F1F1;strokeColor=none;fillColor=#FDD900;" vertex="1" parent="1">
                    <mxGeometry x="525" y="458" width="50" height="80" as="geometry"/>
                </mxCell>
                <mxCell id="7" value="Memory" style="rounded=0;whiteSpace=wrap;html=1;fontSize=20;fontColor=#F1F1F1;strokeColor=#F1F1F1;fillColor=#1F1F1F;" vertex="1" parent="1">
                    <mxGeometry x="765" y="298" width="160" height="160" as="geometry"/>
                </mxCell>
                <mxCell id="5" value="Central Processing&lt;br&gt;Unit" style="rounded=0;whiteSpace=wrap;html=1;fontSize=20;fontColor=#F1F1F1;strokeColor=#F1F1F1;fillColor=#1F1F1F;" vertex="1" parent="1">
                    <mxGeometry x="505" y="298" width="160" height="160" as="geometry"/>
                </mxCell>
                <mxCell id="6" value="I/O&lt;br&gt;Interfacing&lt;br&gt;Circuitry" style="rounded=0;whiteSpace=wrap;html=1;fontSize=20;fontColor=#F1F1F1;strokeColor=#F1F1F1;fillColor=#1F1F1F;" vertex="1" parent="1">
                    <mxGeometry x="245" y="298" width="160" height="160" as="geometry"/>
                </mxCell>
            </root>
        </mxGraphModel>
    </diagram>
</mxfile>